# xmcd
#
# Track frame offsets: 
#        150
#        16840
#        38647
#
# Disc length: 780 seconds
#
# Revision: 0
# Processed by: cddbd v1.4PL0 Copyright (c) Steve Scherf et al.
# Submitted via: ExactAudioCopy v0.95a4
#
DISCID=15030a03
DTITLE=The Black Crowes - Kicking My Heart Around
DYEAR=1998
DGENRE=Blues Rock
TTITLE0=Kicking My Heart Around
TTITLE1=It Must Be Over
TTITLE2=You Don't Have To Go
EXTD=
EXTT0=
EXTT1=
EXTT2=
PLAYORDER=
